<?xml version="1.0" encoding="utf-8"?>
<!-- Generator: Adobe Illustrator 25.0.1, SVG Export Plug-In . SVG Version: 6.00 Build 0)  -->
<svg version="1.1" id="Layer_1" xmlns="http://www.w3.org/2000/svg" xmlns:xlink="http://www.w3.org/1999/xlink" x="0px" y="0px"
	 width="16px" height="19px" viewBox="0 0 16 19" style="enable-background:new 0 0 16 19;" xml:space="preserve">
<style type="text/css">
	.st0{fill-rule:evenodd;clip-rule:evenodd;fill:#FFFFFF;stroke:#FFFFFF;stroke-width:0.4;}
</style>
<desc>Created with Sketch.</desc>
<g id="_x30_9-Inbox-Statement">
	<g id="_x32_01_x5F_Inbox-01-Copy" transform="translate(-835.000000, -267.000000)">
		<g id="Group-7" transform="translate(465.000000, 246.000000)">
			<g id="rubbish-bin" transform="translate(371.000000, 22.000000)">
				<path id="Fill-1" class="st0" d="M12.7,2.2h-2.3V0.7c0-0.3-0.2-0.5-0.6-0.5c0,0,0,0-0.1,0c0,0,0,0,0,0H4.1
					c-0.3,0-0.5,0.2-0.5,0.5v1.5H1.2C0.5,2.2,0,2.7,0,3.4v2h1v11.2c0,0.7,0.5,1.2,1.2,1.2h9.4c0.7,0,1.2-0.5,1.2-1.2V5.4h1v-2
					C13.9,2.7,13.4,2.2,12.7,2.2L12.7,2.2z M4.6,2.2h4.6v-1H4.6V2.2z M11.8,16.5C11.8,16.6,11.7,16.6,11.8,16.5l-9.5,0.1
					c-0.1,0-0.1,0-0.1-0.1V5.4h9.6V16.5z M12.8,4.3H1.1V3.4c0-0.1,0-0.1,0.1-0.1h11.5c0.1,0,0.1,0,0.1,0.1V4.3z"/>
				<polygon id="Fill-2" class="st0" points="8.9,15.7 10,15.7 10,6.6 8.9,6.6 				"/>
				<polygon id="Fill-3" class="st0" points="6.4,15.7 7.5,15.7 7.5,6.6 6.4,6.6 				"/>
				<polygon id="Fill-4" class="st0" points="3.9,15.7 5,15.7 5,6.6 3.9,6.6 				"/>
			</g>
		</g>
	</g>
</g>
</svg>
