<svg xmlns="http://www.w3.org/2000/svg" width="88" height="88" viewBox="0 0 88 88">
  <g id="Group_3238" data-name="Group 3238" transform="translate(12605 16391)">
    <rect id="Rectangle_2144" data-name="Rectangle 2144" width="88" height="88" transform="translate(-12605 -16391)" fill="rgba(255,255,255,0)" opacity="0.593"/>
    <g id="Group_3087" data-name="Group 3087" transform="translate(-12603.689 -16376.477)">
      <g id="eye-outline" transform="translate(0)">
        <path id="Path_4001" data-name="Path 4001" d="M73.921,111.3a44.707,44.707,0,0,1,24.163,7.478,60.244,60.244,0,0,1,17.63,17.843,5.949,5.949,0,0,1,0,6.429,59.231,59.231,0,0,1-17.584,17.907,44.84,44.84,0,0,1-24.214,7.415,44.065,44.065,0,0,1-24.232-7.4A59.3,59.3,0,0,1,32.24,143.1a5.886,5.886,0,0,1,.108-6.549A64.688,64.688,0,0,1,51.823,117.72,42.6,42.6,0,0,1,73.921,111.3Zm36.538,28.54a54,54,0,0,0-15.716-15.887,38.051,38.051,0,0,0-20.822-6.493A36.533,36.533,0,0,0,54.992,123a58.466,58.466,0,0,0-17.478,16.914A53.074,53.074,0,0,0,53.035,155.8a37.158,37.158,0,0,0,41.765-.023A53.017,53.017,0,0,0,110.46,139.84Z" transform="translate(-31.298 -111.3)" fill="rgba(0,0,0,0.8)"/>
        <path id="Ellipse_257" data-name="Ellipse 257" d="M17.609-.7A18.309,18.309,0,1,1-.7,17.609,18.33,18.33,0,0,1,17.609-.7Zm0,30.459A12.149,12.149,0,1,0,5.46,17.609,12.163,12.163,0,0,0,17.609,29.759Z" transform="translate(25.077 10.853)" fill="rgba(0,0,0,0.8)"/>
      </g>
    </g>
  </g>
</svg>
