<svg xmlns="http://www.w3.org/2000/svg" width="88" height="88" viewBox="0 0 88 88">
  <g id="Group_4212" data-name="Group 4212" transform="translate(12682 16392)">
    <rect id="Rectangle_2144" data-name="Rectangle 2144" width="88" height="88" transform="translate(-12682 -16392)" fill="rgba(255,255,255,0)" opacity="0.593"/>
    <g id="Group_4213" data-name="Group 4213" transform="translate(-12680.851 -16384.535)">
      <path id="Union_138" data-name="Union 138" d="M-9781.318,11191.2v-8.65a39.389,39.389,0,0,1-11.281-2.577l-4.952,7.974a3,3,0,0,1-2.551,1.416,3,3,0,0,1-1.581-.449,3,3,0,0,1-.964-4.133l4.575-7.368a54.208,54.208,0,0,1-9.258-6.512l-6.563,5.755a2.983,2.983,0,0,1-1.975.742,3,3,0,0,1-2.259-1.022,3,3,0,0,1,.28-4.231l6.151-5.4a66.314,66.314,0,0,1-9.056-11.719,3,3,0,0,1,1.1-4.094,3,3,0,0,1,4.1,1.1c.146.25,14.71,24.989,37.651,24.621,22.986-.367,36.875-24.359,37.013-24.6a3,3,0,0,1,4.088-1.129,3,3,0,0,1,1.135,4.085,64.188,64.188,0,0,1-9.025,11.747l6.141,5.387a3,3,0,0,1,.278,4.231,2.989,2.989,0,0,1-2.256,1.022,2.984,2.984,0,0,1-1.976-.742l-6.561-5.752a54.071,54.071,0,0,1-8.906,6.27l4.727,7.607a3,3,0,0,1-.966,4.133,3,3,0,0,1-1.582.449,2.992,2.992,0,0,1-2.551-1.416l-5.081-8.182a40.908,40.908,0,0,1-11.9,2.775v8.66a3,3,0,0,1-3,3A3,3,0,0,1-9781.318,11191.2Z" transform="translate(9821 -11134.999)" fill="rgba(0,0,0,0.8)"/>
    </g>
  </g>
</svg>
