<?xml version="1.0" encoding="UTF-8"?>
<svg width="28px" height="30px" viewBox="0 0 28 30" version="1.1" xmlns="http://www.w3.org/2000/svg" xmlns:xlink="http://www.w3.org/1999/xlink">
    <!-- Generator: Sketch 47.1 (45422) - http://www.bohemiancoding.com/sketch -->
    <title>Fixed-Depost</title>
    <desc>Created with Sketch.</desc>
    <defs></defs>
    <g id="_New" stroke="none" stroke-width="1" fill="none" fill-rule="evenodd">
        <g id="0501_MyAccount-One" transform="translate(-669.000000, -173.000000)" fill-rule="nonzero">
            <g id="Fixed-Depost" transform="translate(669.000000, 173.000000)">
                <path d="M26.6918489,0 L0.69945547,0 C0.313495418,0 0,0.308869307 0,0.689754356 L0,26.3182456 C0,26.6992113 0.313495418,27.0080806 0.69945547,27.0080806 L2.47672013,27.0080806 L2.47672013,29.3104069 C2.47672013,29.691292 2.78947945,30 3.1761756,30 L7.71903746,30 C8.10499751,30 8.41849293,29.691292 8.41849293,29.3104069 L8.41849293,27.0079193 L18.9735475,27.0079193 L18.9735475,29.3102456 C18.9735475,29.6911307 19.2863068,29.9998387 19.6729212,29.9998387 L24.2158648,29.9998387 C24.6018249,29.9998387 24.9152385,29.6911307 24.9152385,29.3102456 L24.9152385,27.0079193 L26.6919307,27.0079193 C27.0778907,27.0079193 27.3913043,26.69905 27.3913043,26.3180843 L27.3913043,0.689754356 C27.3912226,0.308869307 27.0778089,0 26.6918489,0 Z M7.01966378,28.6204913 L3.87571286,28.6204913 L3.87571286,27.0079193 L7.01966378,27.0079193 L7.01966378,28.6204913 Z M23.5163276,28.6204913 L20.3724585,28.6204913 L20.3724585,27.0079193 L23.5163276,27.0079193 L23.5163276,28.6204913 Z M25.9923934,25.6286525 L24.2158648,25.6286525 L19.6729212,25.6286525 L7.71903746,25.6286525 L3.1761756,25.6286525 L1.39891094,25.6286525 L1.39891094,1.37934742 L25.9923934,1.37934742 L25.9923934,25.6286525 L25.9923934,25.6286525 Z" id="Shape" fill="#9B9B9B"></path>
                <path d="M13.6955675,16.9565217 C15.8531803,16.9565217 17.6086957,15.2011757 17.6086957,13.0434783 C17.6086957,10.8857808 15.8533496,9.13043478 13.6955675,9.13043478 C11.5379547,9.13043478 9.7826087,10.8857808 9.7826087,13.0434783 C9.7826087,15.2011757 11.5379547,16.9565217 13.6955675,16.9565217 Z M13.6955675,10.5783244 C15.0552496,10.5783244 16.1607214,11.6843887 16.1607214,13.0434783 C16.1607214,14.4027371 15.0550803,15.5087168 13.6955675,15.5087168 C12.3368166,15.5087168 11.2304136,14.4028217 11.2304136,13.0434783 C11.2304136,11.6844734 12.3368166,10.5783244 13.6955675,10.5783244 Z" id="Shape" fill="#FFC83D"></path>
                <path d="M3.28824655,20.438441 L5.42439793,20.438441 L5.42439793,22.7801677 C5.42439793,23.1657476 5.72897213,23.4782609 6.10394883,23.4782609 L21.4942032,23.4782609 C21.8698951,23.4782609 22.173913,23.1657476 22.173913,22.7801677 L22.173913,3.3069521 C22.173913,2.92137216 21.8698951,2.60869565 21.4942032,2.60869565 L6.10394883,2.60869565 C5.72897213,2.60869565 5.42439793,2.92137216 5.42439793,3.3069521 L5.42439793,5.64851548 L3.28824655,5.64851548 C2.91326985,5.64851548 2.60869565,5.96119199 2.60869565,6.34677193 L2.60869565,9.96802311 C2.60869565,10.3536031 2.91326985,10.6661163 3.28824655,10.6661163 L5.42439793,10.6661163 L5.42439793,15.4208402 L3.28824655,15.4208402 C2.91326985,15.4208402 2.60869565,15.7335167 2.60869565,16.1191783 L2.60869565,19.7403479 C2.60869565,20.1259278 2.91326985,20.438441 3.28824655,20.438441 Z M6.78342026,4.00496364 L20.8147318,4.00496364 L20.8147318,22.0819112 L6.78342026,22.0819112 L6.78342026,19.7403479 L6.78342026,16.1190967 L6.78342026,9.96794147 L6.78342026,6.34669029 L6.78342026,4.00496364 Z M3.96779744,9.26976666 L3.96779744,7.04478346 L5.42439793,7.04478346 L5.42439793,9.26976666 L3.96779744,9.26976666 Z M3.96779744,16.8171899 L5.42439793,16.8171899 L5.42439793,19.0423363 L3.96779744,19.0423363 L3.96779744,16.8171899 Z" id="Shape" fill="#9B9B9B"></path>
            </g>
        </g>
    </g>
</svg>