<?xml version="1.0" encoding="UTF-8" standalone="no"?>
<svg width="11px" height="14px" viewBox="0 0 11 14" version="1.1" xmlns="http://www.w3.org/2000/svg" xmlns:xlink="http://www.w3.org/1999/xlink">
    <!-- Generator: Sketch 39.1 (31720) - http://www.bohemiancoding.com/sketch -->
    <title>unlocked</title>
    <desc>Created with Sketch.</desc>
    <defs></defs>
    <g id="Dashboard_Cards" stroke="none" stroke-width="1" fill="none" fill-rule="evenodd">
        <g id="101_Cards_Dashboard" transform="translate(-1244.000000, -35.000000)" fill="#FFC83D">
            <g id="Group-38" transform="translate(981.000000, 0.000000)">
                <g id="unlocked" transform="translate(263.000000, 35.000000)">
                    <g id="Capa_1">
                        <g id="Group">
                            <path d="M9.22425749,5.38913334 L3.20699401,5.38913334 L3.20699401,3.0917776 C3.20699401,1.99474263 4.24119162,1.10223286 5.51238323,1.10223286 C6.78357485,1.10223286 7.81777246,1.99474263 7.81777246,3.0917776 C7.81777246,3.3743498 8.08315569,3.60337482 8.41058683,3.60337482 C8.73801796,3.60337482 9.0034012,3.3743498 9.0034012,3.0917776 C9.0034012,1.43050775 7.43738323,0.0790384265 5.51238323,0.0790384265 C3.58738323,0.0790384265 2.02136527,1.43050775 2.02136527,3.0917776 L2.02136527,5.38913334 L1.80044311,5.38913334 C0.832640719,5.38913334 0.0453173653,6.06859129 0.0453173653,6.90380217 L0.0453173653,13.4018258 C0.0453173653,13.684398 0.310700599,13.913423 0.638131737,13.913423 L10.3866347,13.913423 C10.7140659,13.913423 10.9794491,13.684398 10.9794491,13.4018258 L10.9794491,6.90385901 C10.9794491,6.06859129 10.1920599,5.38913334 9.22425749,5.38913334 L9.22425749,5.38913334 Z M9.79382036,12.8902854 L1.23094611,12.8902854 L1.23094611,6.90385901 C1.23094611,6.63282617 1.4864491,6.41238462 1.80044311,6.41238462 L9.22425749,6.41238462 C9.53831737,6.41238462 9.79375449,6.63288302 9.79375449,6.90385901 L9.79375449,12.8902854 L9.79382036,12.8902854 Z" id="Shape"></path>
                            <path d="M5.51238323,8.59582805 C5.1849521,8.59582805 4.91956886,8.82485307 4.91956886,9.10742527 L4.91956886,10.6232878 C4.91956886,10.90586 5.1849521,11.134885 5.51238323,11.134885 C5.83981437,11.134885 6.1051976,10.90586 6.1051976,10.6232878 L6.1051976,9.10742527 C6.1051976,8.82485307 5.8397485,8.59582805 5.51238323,8.59582805 L5.51238323,8.59582805 Z" id="Shape"></path>
                        </g>
                    </g>
                </g>
            </g>
        </g>
    </g>
</svg>