<?xml version="1.0" encoding="UTF-8" standalone="no"?>
<svg width="32px" height="32px" viewBox="0 0 32 32" version="1.1" xmlns="http://www.w3.org/2000/svg" xmlns:xlink="http://www.w3.org/1999/xlink">
    <!-- Generator: Sketch 39.1 (31720) - http://www.bohemiancoding.com/sketch -->
    <title>Group 13</title>
    <desc>Created with Sketch.</desc>
    <defs></defs>
    <g id="Style-Guide" stroke="none" stroke-width="1" fill="none" fill-rule="evenodd">
        <g id="414_StyleGuide-Copy-20" transform="translate(-780.000000, -82.000000)" fill="#171717">
            <g id="Group-13" transform="translate(781.000000, 83.000000)">
                <g id="Group-11" transform="translate(9.000000, 5.000000)">
                    <path d="M9.22425749,7.06675024 L3.20699401,7.06675024 L3.20699401,4.41658631 C3.20699401,3.15107811 4.24119162,2.12150434 5.51238323,2.12150434 C6.78357485,2.12150434 7.81777246,3.15107811 7.81777246,4.41658631 C7.81777246,4.74255352 8.08315569,5.00675024 8.41058683,5.00675024 C8.73801796,5.00675024 9.0034012,4.74255352 9.0034012,4.41658631 C9.0034012,2.50019286 7.43738323,0.941176471 5.51238323,0.941176471 C3.58738323,0.941176471 2.02136527,2.50019286 2.02136527,4.41658631 L2.02136527,7.06675024 L1.80044311,7.06675024 C0.832640719,7.06675024 0.0453173653,7.85055352 0.0453173653,8.81402893 L0.0453173653,16.3099634 C0.0453173653,16.6359306 0.310700599,16.9001273 0.638131737,16.9001273 L10.3866347,16.9001273 C10.7140659,16.9001273 10.9794491,16.6359306 10.9794491,16.3099634 L10.9794491,8.8140945 C10.9794491,7.85055352 10.1920599,7.06675024 9.22425749,7.06675024 L9.22425749,7.06675024 Z M9.79382036,15.719865 L1.23094611,15.719865 L1.23094611,8.8140945 C1.23094611,8.50143877 1.4864491,8.24714368 1.80044311,8.24714368 L9.22425749,8.24714368 C9.53831737,8.24714368 9.79375449,8.50150434 9.79375449,8.8140945 L9.79375449,15.719865 L9.79382036,15.719865 Z" id="Shape"></path>
                    <path d="M5.51238323,10.7659016 C5.1849521,10.7659016 4.91956886,11.0300984 4.91956886,11.3560656 L4.91956886,13.1047213 C4.91956886,13.4306885 5.1849521,13.6948852 5.51238323,13.6948852 C5.83981437,13.6948852 6.1051976,13.4306885 6.1051976,13.1047213 L6.1051976,11.3560656 C6.1051976,11.0300984 5.8397485,10.7659016 5.51238323,10.7659016 L5.51238323,10.7659016 Z" id="Shape"></path>
                </g>
                <path d="M15,0 C6.72910714,0 0,6.72910714 0,15 C0,23.2708929 6.72910714,30 15,30 C23.2708929,30 30,23.2708929 30,15 C30,6.72910714 23.2708929,0 15,0 L15,0 Z M1.07142857,15 C1.07142857,7.32 7.31946429,1.07142857 15,1.07142857 C22.6805357,1.07142857 28.9285714,7.32 28.9285714,15 C28.9285714,22.68 22.6805357,28.9285714 15,28.9285714 C7.31946429,28.9285714 1.07142857,22.68 1.07142857,15 Z" id="Shape" stroke="#171717" stroke-width="0.3"></path>
            </g>
        </g>
    </g>
</svg>