<svg xmlns="http://www.w3.org/2000/svg" width="150.938" height="184" viewBox="0 0 150.938 184">
  <g id="investment" transform="translate(-46)">
    <path id="Path_153" data-name="Path 153" d="M249.594,143.754,246,183.946h8.984V140.16Z" transform="translate(-128.125 -89.79)" fill="#008d75"/>
    <path id="Path_154" data-name="Path 154" d="M241,140.16v43.786h5.391V143.754Z" transform="translate(-124.922 -89.79)" fill="#2db37f"/>
    <path id="Path_155" data-name="Path 155" d="M256,53.906A53.906,53.906,0,0,0,309.906,0,53.906,53.906,0,0,0,256,53.906Z" transform="translate(-134.531)" fill="#00a085"/>
    <path id="Path_156" data-name="Path 156" d="M106,0a53.906,53.906,0,0,0,53.906,53.906A53.906,53.906,0,0,0,106,0Z" transform="translate(-38.438)" fill="#5ac779"/>
    <path id="Path_157" data-name="Path 157" d="M399.594,444.5,396,456.629l3.594,12.129h10.781V444.5Z" transform="translate(-224.219 -284.758)" fill="#ff7452"/>
    <path id="Path_158" data-name="Path 158" d="M369.594,444.5,366,456.629l3.594,12.129h10.781V444.5Z" transform="translate(-205 -284.758)" fill="#fb9d46"/>
    <path id="Path_159" data-name="Path 159" d="M339.594,424.5,336,443.816l3.594,12.129h10.781V424.5Z" transform="translate(-185.781 -271.945)" fill="#ff7452"/>
    <path id="Path_160" data-name="Path 160" d="M309.594,424.5,306,443.816l3.594,12.129h10.781V424.5Z" transform="translate(-166.563 -271.945)" fill="#fb9d46"/>
    <path id="Path_161" data-name="Path 161" d="M279.594,424.5,276,443.816l3.594,12.129h10.781V424.5Z" transform="translate(-147.344 -271.945)" fill="#ff7452"/>
    <path id="Path_162" data-name="Path 162" d="M249.594,424.5,246,443.816l3.594,12.129h10.781V424.5Z" transform="translate(-128.125 -271.945)" fill="#fb9d46"/>
    <path id="Path_163" data-name="Path 163" d="M219.594,424.5,216,443.816l3.594,12.129h10.781V424.5Z" transform="translate(-108.906 -271.945)" fill="#fdba4c"/>
    <path id="Path_164" data-name="Path 164" d="M189.594,424.5,186,443.816l3.594,12.129h10.781V424.5Z" transform="translate(-89.688 -271.945)" fill="#fb9d46"/>
    <path id="Path_165" data-name="Path 165" d="M159.594,424.5,156,443.816l3.594,12.129h10.781V424.5Z" transform="translate(-70.469 -271.945)" fill="#fdba4c"/>
    <path id="Path_166" data-name="Path 166" d="M129.594,424.5,126,443.816l3.594,12.129h10.781V424.5Z" transform="translate(-51.25 -271.945)" fill="#fb9d46"/>
    <rect id="Rectangle_1564" data-name="Rectangle 1564" width="10.781" height="31.445" transform="translate(67.563 152.555)" fill="#fdba4c"/>
    <path id="Path_167" data-name="Path 167" d="M429.594,309.5,426,321.629l3.594,12.129h10.781V309.5Z" transform="translate(-243.438 -198.273)" fill="#fb9d46"/>
    <path id="Path_168" data-name="Path 168" d="M399.594,289.5,396,308.816l3.594,12.129h10.781V296.688Z" transform="translate(-224.219 -185.461)" fill="#ff7452"/>
    <path id="Path_169" data-name="Path 169" d="M369.594,289.5,366,308.816l3.594,12.129h10.781V289.5Z" transform="translate(-205 -185.461)" fill="#fb9d46"/>
    <path id="Path_170" data-name="Path 170" d="M339.594,289.5,336,308.816l3.594,19.316h10.781V289.5Z" transform="translate(-185.781 -185.461)" fill="#ff7452"/>
    <path id="Path_171" data-name="Path 171" d="M309.594,289.5,306,308.816l3.594,19.316h10.781V289.5Z" transform="translate(-166.563 -185.461)" fill="#fb9d46"/>
    <path id="Path_172" data-name="Path 172" d="M279.594,289.5,276,308.816l3.594,19.316h10.781V289.5Z" transform="translate(-147.344 -185.461)" fill="#ff7452"/>
    <path id="Path_173" data-name="Path 173" d="M249.594,289.5,246,308.816l3.594,19.316h10.781V289.5Z" transform="translate(-128.125 -185.461)" fill="#fb9d46"/>
    <path id="Path_174" data-name="Path 174" d="M219.594,289.5,216,308.816l3.594,19.316h10.781V289.5Z" transform="translate(-108.906 -185.461)" fill="#fdba4c"/>
    <path id="Path_175" data-name="Path 175" d="M189.594,289.5,186,308.816l3.594,19.316h10.781V289.5Z" transform="translate(-89.688 -185.461)" fill="#ffd652"/>
    <path id="Path_176" data-name="Path 176" d="M159.594,289.5,156,308.816l3.594,19.316h10.781V289.5Z" transform="translate(-70.469 -185.461)" fill="#fdba4c"/>
    <rect id="Rectangle_1565" data-name="Rectangle 1565" width="10.781" height="38.633" transform="translate(78.344 104.039)" fill="#ffd652"/>
    <path id="Path_177" data-name="Path 177" d="M399.594,242,396,254.129l3.594,12.129h10.781V242Z" transform="translate(-224.219 -155.031)" fill="#fb9d46"/>
    <path id="Path_178" data-name="Path 178" d="M369.594,242,366,254.129l3.594,12.129h10.781V242Z" transform="translate(-205 -155.031)" fill="#fdba4c"/>
    <path id="Path_179" data-name="Path 179" d="M339.594,242,336,254.129l3.594,12.129h10.781V242Z" transform="translate(-185.781 -155.031)" fill="#fb9d46"/>
    <path id="Path_180" data-name="Path 180" d="M309.594,242,306,254.129l3.594,12.129h10.781V242Z" transform="translate(-166.563 -155.031)" fill="#fdba4c"/>
    <path id="Path_181" data-name="Path 181" d="M279.594,242,276,254.129l3.594,12.129h10.781V242Z" transform="translate(-147.344 -155.031)" fill="#fb9d46"/>
    <path id="Path_182" data-name="Path 182" d="M249.594,242,246,254.129l3.594,12.129h10.781V242Z" transform="translate(-128.125 -155.031)" fill="#fdba4c"/>
    <path id="Path_183" data-name="Path 183" d="M219.594,242,216,254.129l3.594,12.129h10.781V242Z" transform="translate(-108.906 -155.031)" fill="#ffd652"/>
    <path id="Path_184" data-name="Path 184" d="M189.594,242,186,254.129l3.594,12.129h10.781V242Z" transform="translate(-89.688 -155.031)" fill="#fbe287"/>
    <path id="Path_185" data-name="Path 185" d="M159.594,242,156,254.129l3.594,12.129h10.781V242Z" transform="translate(-70.469 -155.031)" fill="#ffd652"/>
    <path id="Path_186" data-name="Path 186" d="M129.594,242,126,254.129l3.594,12.129h10.781V242Z" transform="translate(-51.25 -155.031)" fill="#fbe287"/>
    <rect id="Rectangle_1566" data-name="Rectangle 1566" width="10.781" height="24.258" transform="translate(67.563 86.969)" fill="#ffd652"/>
    <path id="Path_187" data-name="Path 187" d="M339.594,377,336,389.129l3.594,12.129h10.781V377Z" transform="translate(-185.781 -241.516)" fill="#fb9d46"/>
    <path id="Path_188" data-name="Path 188" d="M309.594,377,306,389.129l3.594,12.129h10.781V377Z" transform="translate(-166.563 -241.516)" fill="#fdba4c"/>
    <path id="Path_189" data-name="Path 189" d="M279.594,377,276,389.129l3.594,12.129h10.781V377Z" transform="translate(-147.344 -241.516)" fill="#fb9d46"/>
    <path id="Path_190" data-name="Path 190" d="M249.594,377,246,389.129l3.594,12.129h10.781V377Z" transform="translate(-128.125 -241.516)" fill="#fdba4c"/>
    <path id="Path_191" data-name="Path 191" d="M219.594,377,216,389.129l3.594,12.129h10.781V377Z" transform="translate(-108.906 -241.516)" fill="#ffd652"/>
    <path id="Path_192" data-name="Path 192" d="M189.594,377,186,389.129l3.594,12.129h10.781V377Z" transform="translate(-89.688 -241.516)" fill="#fbe287"/>
    <path id="Path_193" data-name="Path 193" d="M159.594,377,156,389.129l3.594,12.129h10.781V377Z" transform="translate(-70.469 -241.516)" fill="#ffd652"/>
    <path id="Path_194" data-name="Path 194" d="M129.594,377,126,389.129l3.594,12.129h10.781V377Z" transform="translate(-51.25 -241.516)" fill="#fbe287"/>
    <path id="Path_195" data-name="Path 195" d="M99.594,377,96,389.129l3.594,12.129h10.781V377Z" transform="translate(-32.031 -241.516)" fill="#ffd652"/>
    <path id="Path_196" data-name="Path 196" d="M69.594,377,66,389.129l3.594,12.129H80.375V377Z" transform="translate(-12.813 -241.516)" fill="#fbe287"/>
    <rect id="Rectangle_1567" data-name="Rectangle 1567" width="10.781" height="24.258" transform="translate(46 135.484)" fill="#ffd652"/>
  </g>
</svg>
