<svg xmlns="http://www.w3.org/2000/svg" width="176" height="173.458" viewBox="0 0 176 173.458">
  <g id="couple" transform="translate(-4)">
    <path id="Path_137" data-name="Path 137" d="M354.642,409.734v6.586a6.1,6.1,0,0,1-6.165,6.161H262.164A6.106,6.106,0,0,1,256,416.32v-6.586C256,382.489,278.075,360,305.322,360a49.623,49.623,0,0,1,34.9,14.433A50.6,50.6,0,0,1,354.642,409.734Z" transform="translate(-174.642 -249.023)" fill="#b10fe2"/>
    <path id="Path_139" data-name="Path 139" d="M114.644,409.734v6.586a6.107,6.107,0,0,1-6.165,6.161H22.165A6.107,6.107,0,0,1,16,416.32v-6.586C16,382.489,38.071,360,65.322,360a49.619,49.619,0,0,1,34.9,14.433A50.6,50.6,0,0,1,114.644,409.734Z" transform="translate(-12 -249.023)" fill="#b37d00"/>
    <path id="Path_141" data-name="Path 141" d="M349.5,90a18.5,18.5,0,1,0,18.495,18.5A18.472,18.472,0,0,0,349.5,90Z" transform="translate(-218.815 -90)" fill="#efe2dd"/>
    <path id="Path_142" data-name="Path 142" d="M119.983,162.452V199.32a36.991,36.991,0,1,1-73.983,0V162.452C56.851,156.041,69.428,150,82.991,150S109.132,156.041,119.983,162.452Z" transform="translate(-29.67 -125.338)" fill="#ffcebf"/>
    <path id="Path_144" data-name="Path 144" d="M184.5,186.991h0A18.5,18.5,0,0,1,166,168.5v-6.166A12.329,12.329,0,0,1,178.329,150h0a12.33,12.33,0,0,1,12.332,12.329v18.493A6.164,6.164,0,0,1,184.5,186.991Z" transform="translate(-100.347 -125.338)" fill="#efe2dd"/>
    <path id="Path_145" data-name="Path 145" d="M52.165,186.991h0a18.5,18.5,0,0,0,18.5-18.5v-6.166A12.329,12.329,0,0,0,58.33,150h0A12.329,12.329,0,0,0,46,162.329v18.493A6.166,6.166,0,0,0,52.165,186.991Z" transform="translate(-29.67 -125.338)" fill="#ffeee6"/>
    <path id="Path_148" data-name="Path 148" d="M376,126.992V90a18.5,18.5,0,0,1,0,36.992Z" transform="translate(-245.32 -90)" fill="#e1d3ce"/>
    <path id="Path_149" data-name="Path 149" d="M359.983,231.59V234.3a36.992,36.992,0,1,1-73.984,0V231.59l36.992-22.19Z" transform="translate(-192.309 -160.327)" fill="#ffcebf"/>
    <path id="Path_151" data-name="Path 151" d="M359.983,186.991v9.62a29.594,29.594,0,0,1-12.327,2.709,30.6,30.6,0,0,1-24.664-12.578,30.6,30.6,0,0,1-24.664,12.578A28.155,28.155,0,0,1,286,196.61v-9.62A37.073,37.073,0,0,1,322.867,150h.244A37.069,37.069,0,0,1,359.983,186.991Z" transform="translate(-192.309 -125.338)" fill="#ffeee6"/>
    <path id="Path_152" data-name="Path 152" d="M412.991,186.991v9.62a29.616,29.616,0,0,1-12.332,2.709A30.593,30.593,0,0,1,376,186.742V150h.124A37.07,37.07,0,0,1,412.991,186.991Z" transform="translate(-245.32 -125.338)" fill="#efe2dd"/>
  </g>
</svg>
