<?xml version="1.0" encoding="UTF-8" standalone="no"?>
<svg width="25px" height="25px" viewBox="0 0 25 25" version="1.1" xmlns="http://www.w3.org/2000/svg" xmlns:xlink="http://www.w3.org/1999/xlink">
    <!-- Generator: Sketch 39.1 (31720) - http://www.bohemiancoding.com/sketch -->
    <title>menu</title>
    <desc>Created with Sketch.</desc>
    <defs></defs>
    <g id="Page-1" stroke="none" stroke-width="1" fill="none" fill-rule="evenodd">
        <g id="414_StyleGuide-Copy-20" transform="translate(-1136.000000, -339.000000)" fill="#fff">
            <g id="menu" transform="translate(1137.000000, 340.000000)">
                <g id="Capa_1">
                    <g id="Group">
                        <path d="M11.5,0 C5.15898214,0 0,5.15898214 0,11.5 C0,17.8410179 5.15898214,23 11.5,23 C17.8410179,23 23,17.8410179 23,11.5 C23,5.15898214 17.8410179,0 11.5,0 L11.5,0 Z M0.821428571,11.5 C0.821428571,5.612 5.61158929,0.821428571 11.5,0.821428571 C17.3884107,0.821428571 22.1785714,5.612 22.1785714,11.5 C22.1785714,17.388 17.3884107,22.1785714 11.5,22.1785714 C5.61158929,22.1785714 0.821428571,17.388 0.821428571,11.5 Z" id="Shape" stroke="#fff" stroke-width="0.3"></path>
                        <path d="M16.4285714,6.57142857 L6.57142857,6.57142857 C6.34430357,6.57142857 6.16071429,6.75542857 6.16071429,6.98214286 C6.16071429,7.20885714 6.34430357,7.39285714 6.57142857,7.39285714 L16.4285714,7.39285714 C16.6556964,7.39285714 16.8392857,7.20885714 16.8392857,6.98214286 C16.8392857,6.75542857 16.6556964,6.57142857 16.4285714,6.57142857 L16.4285714,6.57142857 Z" id="Shape"></path>
                        <path d="M16.4285714,11.0892857 L6.57142857,11.0892857 C6.34430357,11.0892857 6.16071429,11.2732857 6.16071429,11.5 C6.16071429,11.7267143 6.34430357,11.9107143 6.57142857,11.9107143 L16.4285714,11.9107143 C16.6556964,11.9107143 16.8392857,11.7267143 16.8392857,11.5 C16.8392857,11.2732857 16.6556964,11.0892857 16.4285714,11.0892857 L16.4285714,11.0892857 Z" id="Shape"></path>
                        <path d="M16.4285714,15.6071429 L6.57142857,15.6071429 C6.34430357,15.6071429 6.16071429,15.7911429 6.16071429,16.0178571 C6.16071429,16.2445714 6.34430357,16.4285714 6.57142857,16.4285714 L16.4285714,16.4285714 C16.6556964,16.4285714 16.8392857,16.2445714 16.8392857,16.0178571 C16.8392857,15.7911429 16.6556964,15.6071429 16.4285714,15.6071429 L16.4285714,15.6071429 Z" id="Shape"></path>
                    </g>
                </g>
            </g>
        </g>
    </g>
</svg>