<svg xmlns="http://www.w3.org/2000/svg" width="800" height="426.351" viewBox="0 0 800 426.351">
  <g id="undraw_Dashboard_re_3b76" transform="translate(0.002)">
    <path id="Path_3590" data-name="Path 3590" d="M634.393,699.947l-11.339-4.775-7.778-56.84H511.7l-8.431,56.608-10.144,5.072a2.409,2.409,0,0,0,1.078,4.563H633.459a2.409,2.409,0,0,0,.935-4.629Z" transform="translate(-175.873 -278.818)" fill="#e6e6e6"/>
    <path id="Path_3591" data-name="Path 3591" d="M763.311,624.582H254.491a10.08,10.08,0,0,1-10.058-10.08v-71.75H773.369V614.5a10.081,10.081,0,0,1-10.058,10.08Z" transform="translate(-120.719 -257.506)" fill="#ccc"/>
    <path id="Path_3592" data-name="Path 3592" d="M773.768,494.809H243.835v-307a12.166,12.166,0,0,1,12.152-12.152H761.615A12.166,12.166,0,0,1,773.768,187.8Z" transform="translate(-120.586 -175.653)" fill="#3f3d56"/>
    <path id="Path_3593" data-name="Path 3593" d="M748.511,478.92H281.88a9.379,9.379,0,0,1-9.369-9.368V213.7a9.379,9.379,0,0,1,9.369-9.369H748.511a9.379,9.379,0,0,1,9.369,9.369V469.552A9.379,9.379,0,0,1,748.511,478.92Z" transform="translate(-126.98 -182.046)" fill="#fff"/>
    <path id="Path_3594" data-name="Path 3594" d="M884.03,723.667H86.452a1.218,1.218,0,0,1-1.2-.881,1.188,1.188,0,0,1,1.148-1.491H883.933a1.255,1.255,0,0,1,1.256.927,1.188,1.188,0,0,1-1.159,1.444Z" transform="translate(-85.219 -297.316)" fill="#ccc"/>
    <rect id="Rectangle_1643" data-name="Rectangle 1643" width="76.775" height="7.21" transform="translate(170.621 119.043)" fill="#e5e5e5"/>
    <rect id="Rectangle_1644" data-name="Rectangle 1644" width="76.775" height="7.21" transform="translate(170.621 136.528)" fill="#e5e5e5"/>
    <rect id="Rectangle_1645" data-name="Rectangle 1645" width="76.775" height="7.21" transform="translate(170.621 154.4)" fill="#e5e5e5"/>
    <rect id="Rectangle_1646" data-name="Rectangle 1646" width="76.775" height="7.21" transform="translate(170.621 172.271)" fill="#e5e5e5"/>
    <rect id="Rectangle_1647" data-name="Rectangle 1647" width="40.405" height="6.257" transform="translate(188.806 194.981)" fill="#f9c326"/>
    <rect id="Rectangle_1648" data-name="Rectangle 1648" width="0.734" height="2.202" transform="translate(366.129 163.761)" fill="#e5e5e5"/>
    <path id="Path_3595" data-name="Path 3595" d="M557.145,437.512h-.734V432.82h.734Zm0-9.385h-.734v-4.693h.734Zm0-9.385h-.734V414.05h.734Zm0-9.385h-.734v-4.693h.734Zm0-9.385h-.734V395.28h.734Z" transform="translate(-190.282 -224.623)" fill="#e5e5e5"/>
    <rect id="Rectangle_1649" data-name="Rectangle 1649" width="0.734" height="2.202" transform="translate(366.129 217.581)" fill="#e5e5e5"/>
    <rect id="Rectangle_1650" data-name="Rectangle 1650" width="0.734" height="2.202" transform="translate(446.515 163.761)" fill="#e5e5e5"/>
    <path id="Path_3596" data-name="Path 3596" d="M660.6,437.512h-.734V432.82h.734Zm0-9.385h-.734v-4.693h.734Zm0-9.385h-.734V414.05h.734Zm0-9.385h-.734v-4.693h.734Zm0-9.385h-.734V395.28h.734Z" transform="translate(-213.35 -224.623)" fill="#e5e5e5"/>
    <rect id="Rectangle_1651" data-name="Rectangle 1651" width="0.734" height="2.202" transform="translate(446.515 217.581)" fill="#e5e5e5"/>
    <rect id="Rectangle_1652" data-name="Rectangle 1652" width="0.734" height="2.202" transform="translate(487.064 120.677)" fill="#e5e5e5"/>
    <path id="Path_3597" data-name="Path 3597" d="M712.784,425.279h-.734v-4.51h.734Zm0-9.019h-.734v-4.51h.734Zm0-9.019h-.734v-4.509h.734Zm0-9.019h-.734v-4.51h.734Zm0-9.019h-.734v-4.51h.734Zm0-9.019h-.734v-4.509h.734Zm0-9.019h-.734v-4.509h.734Zm0-9.019h-.734v-4.51h.734Zm0-9.019h-.734v-4.51h.734Zm0-9.019h-.734V339.6h.734Z" transform="translate(-224.985 -212.208)" fill="#e5e5e5"/>
    <rect id="Rectangle_1653" data-name="Rectangle 1653" width="0.734" height="2.202" transform="translate(487.064 217.581)" fill="#e5e5e5"/>
    <rect id="Rectangle_1654" data-name="Rectangle 1654" width="0.734" height="2.202" transform="translate(527.209 103.058)" fill="#e5e5e5"/>
    <path id="Path_3598" data-name="Path 3598" d="M764.449,420.236h-.734v-4.493h.734Zm0-8.986h-.734v-4.493h.734Zm0-8.986h-.734v-4.493h.734Zm0-8.986h-.734v-4.493h.734Zm0-8.986h-.734V379.8h.734Zm0-8.986h-.734v-4.493h.734Zm0-8.986h-.734v-4.493h.734Zm0-8.986h-.734v-4.493h.734Zm0-8.986h-.734v-4.493h.734Zm0-8.986h-.734v-4.493h.734Zm0-8.986h-.734v-4.493h.734Zm0-8.986h-.734V316.9h.734Z" transform="translate(-236.505 -207.147)" fill="#e5e5e5"/>
    <rect id="Rectangle_1655" data-name="Rectangle 1655" width="0.734" height="2.202" transform="translate(527.209 217.581)" fill="#e5e5e5"/>
    <rect id="Rectangle_1656" data-name="Rectangle 1656" width="0.734" height="2.202" transform="translate(406.505 134.258)" fill="#e5e5e5"/>
    <path id="Path_3599" data-name="Path 3599" d="M609.108,429.348h-.734v-4.27h.734Zm0-8.539h-.734V416.54h.734Zm0-8.539h-.734V408h.734Zm0-8.539h-.734v-4.269h.734Zm0-8.539h-.734v-4.269h.734Zm0-8.539h-.734v-4.269h.734Zm0-8.539h-.734v-4.269h.734Zm0-8.539h-.734v-4.269h.734Zm0-8.539h-.734v-4.269h.734Z" transform="translate(-201.868 -216.036)" fill="#e5e5e5"/>
    <rect id="Rectangle_1657" data-name="Rectangle 1657" width="0.734" height="2.202" transform="translate(406.505 217.581)" fill="#e5e5e5"/>
    <path id="Path_3600" data-name="Path 3600" d="M747.1,425.957H504.062a.761.761,0,0,1-.761-.761V308.708a.761.761,0,0,1,1.521,0V424.436H747.1a.761.761,0,1,1,0,1.521Z" transform="translate(-178.44 -205.151)" fill="#3f3d56"/>
    <path id="Path_3601" data-name="Path 3601" d="M552.254,194.253l-40.409-30.266L471.989,193.84l-.912-1.218,40.768-30.536,40.216,30.122,39.963-43.733.161-.065L632.5,132.168l.569,1.412-40.152,16.177Z" transform="translate(-105.038 -29.47)" fill="#3f3d56"/>
    <circle id="Ellipse_109" data-name="Ellipse 109" cx="4.564" cy="4.564" r="4.564" transform="translate(361.932 159.198)" fill="#f9c326"/>
    <circle id="Ellipse_110" data-name="Ellipse 110" cx="4.564" cy="4.564" r="4.564" transform="translate(402.244 129.534)" fill="#f9c326"/>
    <circle id="Ellipse_111" data-name="Ellipse 111" cx="4.564" cy="4.564" r="4.564" transform="translate(442.556 159.198)" fill="#f9c326"/>
    <circle id="Ellipse_112" data-name="Ellipse 112" cx="4.564" cy="4.564" r="4.564" transform="translate(482.868 115.083)" fill="#f9c326"/>
    <circle id="Ellipse_113" data-name="Ellipse 113" cx="4.564" cy="4.564" r="4.564" transform="translate(523.18 98.349)" fill="#f9c326"/>
    <rect id="Rectangle_1658" data-name="Rectangle 1658" width="1.554" height="274.592" transform="translate(269.838 22.282)" fill="#e5e5e5"/>
    <path id="Path_3602" data-name="Path 3602" d="M903.073,545.909a5.708,5.708,0,0,0-1.524-8.618l3.794-19.925-9.729,4.055-2.111,18.3a5.739,5.739,0,0,0,9.57,6.189Z" transform="translate(-265.314 -251.845)" fill="#ffb7b7"/>
    <path id="Path_3603" data-name="Path 3603" d="M879.712,526.679h-8.238L867.554,494.9h12.159Z" transform="translate(-193.442 -110.35)" fill="#ffb7b7"/>
    <path id="Path_3604" data-name="Path 3604" d="M963.5,718.664H936.937v-.336a10.34,10.34,0,0,1,10.338-10.339H963.5Z" transform="translate(-275.129 -294.349)" fill="#2f2e41"/>
    <path id="Path_3605" data-name="Path 3605" d="M821.771,526.679h-8.238L809.614,494.9h12.159Z" transform="translate(-180.522 -110.35)" fill="#ffb7b7"/>
    <path id="Path_3606" data-name="Path 3606" d="M902.966,718.664H876.4v-.336a10.339,10.339,0,0,1,10.338-10.339h16.225Z" transform="translate(-261.632 -294.349)" fill="#2f2e41"/>
    <path id="Path_3607" data-name="Path 3607" d="M820.168,363.083l-8.063,18.576-6.652,106.774,16.8-.672,4.589-50.9,14.153-45.335,8.137,50.541,3.36,44.349,13.9.6,5.539-123.936Z" transform="translate(-179.594 -80.958)" fill="#2f2e41"/>
    <path id="Path_3608" data-name="Path 3608" d="M948.167,420.766l-23.37.585-13.721,7.044-.753,51.967-8.557,35.879s53.468,3.68,60.859-1.7l-8.735-40.989,11.716-44.3Z" transform="translate(-267.287 -230.306)" fill="#f9c326"/>
    <path id="Path_3609" data-name="Path 3609" d="M911.484,431.4l-2.5-.812s-7.919,5.082-7.166,17.369c0,0-.3,6.358-.013,10.59.325,4.854-9.407,53.084-9.407,53.084h14.111l6.047-43.677Z" transform="translate(-265.199 -232.495)" fill="#f9c326"/>
    <path id="Path_3610" data-name="Path 3610" d="M982.8,546.774a5.708,5.708,0,0,1,1.524-8.618l-3.793-19.925,9.729,4.054,2.111,18.3a5.739,5.739,0,0,1-9.57,6.189Z" transform="translate(-284.85 -252.038)" fill="#ffb7b7"/>
    <path id="Path_3611" data-name="Path 3611" d="M977.548,432.26l2.5-.812s7.919,5.082,7.165,17.369c0,0,.3,6.358.013,10.59-.325,4.854,4.032,53.084,4.032,53.084H977.144L971.1,468.814Z" transform="translate(-282.746 -232.688)" fill="#f9c326"/>
    <path id="Path_3612" data-name="Path 3612" d="M959.568,388.058a16.2,16.2,0,1,1-16.2-16.2h0a16.16,16.16,0,0,1,16.2,16.12Z" transform="translate(-272.951 -219.401)" fill="#ffb7b7"/>
    <path id="Path_3613" data-name="Path 3613" d="M927.036,363.442c1.9-4.081,5.57-3.274,8.782-1.891,4.068-.9,7.936-3.6,12.319-2.006,4.317,6.279,18.811,4.431,15.728,14.654,0,2.449,4.609,1.024,3.8,5.035,2.444,7.72-8.821,22.341-15.287,19.262,1.6-2.931,5.253-9.588-.289-10.249-11.92,11.091-1.23-21.12-16.207-11.752C930.927,381.033,924.138,367.981,927.036,363.442Z" transform="translate(-272.767 -216.545)" fill="#2f2e41"/>
  </g>
</svg>
