<svg id="Layer_1" data-name="Layer 1" xmlns="http://www.w3.org/2000/svg" xmlns:xlink="http://www.w3.org/1999/xlink" viewBox="0 0 168.97 33.09"><defs><style>.cls-1{fill:#fff;fill-rule:evenodd;}.cls-2{mask:url(#mask);}</style><mask id="mask" x="152.04" y="4.95" width="16.93" height="21.55" maskUnits="userSpaceOnUse"><g id="b"><path id="a" class="cls-1" d="M169,26.5V5H152V26.5Z"/></g></mask></defs><path class="cls-1" d="M107.6,14.91a5.29,5.29,0,0,0-1.71.3v7.91a5.74,5.74,0,0,0,1.58.19c2.24,0,3.56-1.56,3.56-4.31s-1.25-4.09-3.43-4.09m-.49,11.92a20.22,20.22,0,0,1-6.66-1.07V5h5.44v7a9.5,9.5,0,0,1,2.8-.44c4.61,0,7.77,2.58,7.77,7.11,0,5.54-3.32,8.21-9.35,8.21m20.22-7.14c-2.93.11-5.14.38-5.14,2.14,0,1.21,1.22,1.87,3.17,1.87a8.44,8.44,0,0,0,2-.22Zm-1.81,7.14c-5.6,0-8.37-1.73-8.37-4.89,0-3.93,4.81-4.83,10.18-5.08v-.57c0-1.18-1-1.73-2.83-1.73a17.23,17.23,0,0,0-5,.9l-1.32-3a21.07,21.07,0,0,1,7-1.17c4.84,0,7.28,1.64,7.28,5.56v8.93A20.41,20.41,0,0,1,125.52,26.83Zm19-.33V16.89c0-1.24-.7-2.05-2.64-2.05a5.88,5.88,0,0,0-1.9.37V26.5h-5.44V12.44a23.5,23.5,0,0,1,7.41-1.17c5.57,0,8,1.89,8,5.1V26.5Z"/><g class="cls-2"><path class="cls-1" d="M162.91,26.5l-5.44-7.39h-.06V26.5H152V5h5.37V18h.06l4.91-6.34h6.13L163,18.59l6,7.91Z"/></g><path class="cls-1" d="M90.23,32.4h-5.7l2.67-5.9L80.51,11.7h5.91L90,22.21,93.6,11.7h5.92ZM62,6.62H55.63L51.45,18.9,47.27,6.62H40.94L38.08,26.5h5.17L44.9,12.84,49.74,26.5h3.42L58,12.84,59.65,26.5h5.17ZM75.69,19.69c-2.93.11-5.14.38-5.14,2.14,0,1.21,1.22,1.87,3.16,1.87a8.47,8.47,0,0,0,2-.22Zm-1.81,7.14c-5.6,0-8.37-1.73-8.37-4.89,0-3.93,4.81-4.83,10.18-5.08v-.57c0-1.18-1-1.73-2.83-1.73a17.16,17.16,0,0,0-5,.9l-1.32-3a23.65,23.65,0,0,1,7-1.17c4.84,0,7.28,1.64,7.28,5.56v8.93A20.41,20.41,0,0,1,73.88,26.83ZM16.55,31.77A15.22,15.22,0,1,1,31.77,16.55,15.22,15.22,0,0,1,16.55,31.77M16.55,0A16.55,16.55,0,1,0,33.09,16.55,16.55,16.55,0,0,0,16.55,0"/><path class="cls-1" d="M10,15.79c-1.19-.3-2.23,1.08-2.81,2.13.2-1.43,2-3.78,2.81-2.13m-2.61,0c.4-1.37,1.34-1.87,1.84-1.46a3.74,3.74,0,0,0-1.84,1.46m3,2.18c.61-.52.55-1.28-.39-1.52-.7-.19-2.21,1.08-2.37,2.48.6-.78,2.35-2.2,2.76-1m9.5,3.63c.11-1.8-1.63-2.64-2-4.47s2.72-4.77.79-7.77c3.63,2.93.79,4.66,2.62,7.09a3.5,3.5,0,0,1-1.62-1.17c-1,1.34,2.5,3.18.17,6.32M14,7.17c.43,0,1.17.3.87.65-1,.94-2.37.56-3.44,1.5C11.88,8.14,13.86,8,14,7.17"/><path class="cls-1" d="M12.78,11.13c-.13,0-.25-.19-.28-.42.17.44.6.22.36-.4.15,0,.4,0,.85,0-.47.25-.69.84-.93.83M17.29,8.5c.42-.47,0-1.12-1.7-1.34,1.8.88-1.09,1.07-1.19,2.58-1,.38-1.71-.24-2.18.18s-1,.14-.82-.35a.69.69,0,0,0,.09,1.26c.11.05.2.15.12.23-.58.54-.85,1-.24,1.57a3.12,3.12,0,0,1,.87-1.14c.35.24,1,.08,1.78-.83,0,0,.1,0,.08,0-.66,2.25-2.33,2.62-2.87,2.51.33.49,2.45.79,2.72-.16.61-2.14,2.67-3.07.89-3,.48-.56,2.1-1.1,2.45-1.5m.9-1.15A7.21,7.21,0,0,1,20,8.94c.11-.91-.42-2.73-1.18-3.14-.33-.18-.81,1.08-.65,1.55"/><path class="cls-1" d="M4.41,14.69a9.47,9.47,0,0,1,4.11-4.51C9,8.87,8.86,8,14.18,5.92c.14-.79.11-1.73.34-1.73a2.64,2.64,0,0,1,1.57,1.16l.58-.07a9.13,9.13,0,0,1,.83-2.37c.39-.6,1.12-.66,2.08.12a14.1,14.1,0,0,1,3.05,2.88A10.91,10.91,0,0,1,27.13,9a4.76,4.76,0,0,0-2.07-.68c1.27,1.11,2.1,2.94,1.46,5.62-.24-2.5-2.09-3.55-3.21-4.35.61,2.12-2,1.39-2.85-.2a.94.94,0,0,0,.71,0,7.77,7.77,0,0,0-2.29-5.66C18,3,17.55,4.71,17.26,6a.92.92,0,0,1-.94.73A2.53,2.53,0,0,0,16.57,6a12.53,12.53,0,0,0-3.78,1.31c-2.35,1.07-2.94,1.6-3.46,3.39a16.79,16.79,0,0,0-4.92,4"/><path class="cls-1" d="M16.16,14.24a5,5,0,0,1,0,5.63c.49-2.2-.87-6.39-2.39-4.25a1.64,1.64,0,0,1,1.09,2.09,2.32,2.32,0,0,0-2.54-1.27,1.41,1.41,0,0,1-1.74-.59c-.68-1,.46-2.23-1.49-2.13,2.35-1.19,1.67,1.12,2.81,1.4,1.31.31,1.47-.5,1.92-1a1.29,1.29,0,0,1,1.75-.3c.33-1-.16-2.65.8-3.51a2,2,0,0,1,2.07.19c-.83,0-1.81,1-2.29,3.77"/><path class="cls-1" d="M10.78,23.71a1.39,1.39,0,0,1-.39-.93,3.37,3.37,0,0,0,.93.37,1.51,1.51,0,0,1-.54.56m2.37-2.58c.23,0,.43.22.65.06s0-.78-.17-1c.2,0,1,0,1,.34-.1.76-.58,1-1.75,1.58.2-.19.16-.59.29-1M8.47,20.5a1.3,1.3,0,0,1,.75-.57,5.51,5.51,0,0,0,.17,1.59s-.91-.57-.92-1m-3-3a4.13,4.13,0,0,1-1.17-1.25,2,2,0,0,1,.9-.61c.33-.09.54.1.5.2s-.34.11-.43.36.29.51.38.68a.44.44,0,0,1-.18.62m22.68-7.37c1.2,4.18.86,8.2-.37,10.6.15-1.51-1.17-3.71-.64-6.28-2.5,2.43,1.41,8.39-4.26,12.3a11.25,11.25,0,0,0,.93-6,2.15,2.15,0,0,1,.8.81,9.28,9.28,0,0,0-.36-6,2.84,2.84,0,0,1,1.24.6c.14-3.46-2.39-3.72-2.86-4.66,0,1,1.18,1.86,1.39,3.18a3.38,3.38,0,0,0-1.85-.39,7.1,7.1,0,0,1,1.64,5.42,3,3,0,0,0-1.79-.8c.75,1.14,1.06,4.12.11,5.49a3.14,3.14,0,0,0-.49-1.58A3.56,3.56,0,0,1,19,25.44a2.29,2.29,0,0,0-.73-3.78c-1.47-.5-3.33.49-4.09,4-1.06.31-4.23-.37-2.34-2.42,1.16.39,4.11-1.58,3.91-3a3.17,3.17,0,0,0-3.43-2.58c-1.71,0-2.87,1.62-4.28,2.32-1.17-.18-1.57-.35-2.17-1.91-.07-1,1-1.63.93-2.61-.84.17-1-1.08-2.67.22-.13-.24.09-.8.09-.8a2.21,2.21,0,0,0-.73,1.32A4,4,0,0,0,5,17.86C6,20.42,7,20.71,8,20.8a3.28,3.28,0,0,0,1.88,1.29,6.26,6.26,0,0,1-.08-2.18c2.07-2.08,3.62-.81,3.82-.26C11.74,20,13.05,24,10,22.22a3,3,0,0,0,.43,2c.31,2.71,3.72,2,4.77,2.52-.12-2.63,1.34-4.55,2.59-4.39s1.58,2.2-.56,4.14a6,6,0,0,0,4-1c.11.67-.75,2.65-1.82,4a13.27,13.27,0,0,0,8.79-19.42"/></svg>