<?xml version="1.0" encoding="UTF-8" standalone="no"?>
<svg width="17px" height="17px" viewBox="0 0 17 17" version="1.1" xmlns="http://www.w3.org/2000/svg" xmlns:xlink="http://www.w3.org/1999/xlink">
    <!-- Generator: Sketch 39.1 (31720) - http://www.bohemiancoding.com/sketch -->
    <title>clock</title>
    <desc>Created with Sketch.</desc>
    <defs></defs>
    <g id="Dashboard_Cards" stroke="none" stroke-width="1" fill="none" fill-rule="evenodd">
        <g id="101_Cards_Dashboard" transform="translate(-31.000000, -105.000000)" fill="#FFFFFF">
            <g id="Group-5" transform="translate(31.000000, 105.000000)">
                <g id="clock">
                    <g id="Group">
                        <path d="M16.4109242,0.993166667 L13.0353939,0.993166667 L13.0353939,0.5 C13.0353939,0.223916667 12.8046919,1.77635684e-15 12.5202424,1.77635684e-15 C12.2357929,1.77635684e-15 12.0050909,0.223916667 12.0050909,0.5 L12.0050909,0.993166667 L8.9954899,0.993166667 L8.9954899,0.5 C8.9954899,0.223916667 8.76478788,1.77635684e-15 8.48033838,1.77635684e-15 C8.19588889,1.77635684e-15 7.96518687,0.223916667 7.96518687,0.5 L7.96518687,0.993166667 L5.08351515,0.993166667 L5.08351515,0.5 C5.08351515,0.223916667 4.85281313,1.77635684e-15 4.56836364,1.77635684e-15 C4.28391414,1.77635684e-15 4.05321212,0.223916667 4.05321212,0.5 L4.05321212,0.993166667 L0.549838384,0.993166667 C0.265388889,0.993166667 0.0346868687,1.21708333 0.0346868687,1.49316667 L0.0346868687,12.7908333 C0.0346868687,13.0669167 0.265388889,13.2908333 0.549838384,13.2908333 L3.71166667,13.2908333 C4.21831818,15.392 6.16335859,16.9619167 8.48033838,16.9619167 C10.7973182,16.9619167 12.7423586,15.3919167 13.2490101,13.2908333 L16.4108384,13.2908333 C16.6952879,13.2908333 16.9259899,13.0669167 16.9259899,12.7908333 L16.9259899,1.49316667 C16.9260758,1.21708333 16.6954596,0.993166667 16.4109242,0.993166667 L16.4109242,0.993166667 Z M4.05321212,1.99316667 L4.05321212,2.445 C4.05321212,2.72108333 4.28391414,2.945 4.56836364,2.945 C4.85281313,2.945 5.08351515,2.72108333 5.08351515,2.445 L5.08351515,1.99316667 L7.96518687,1.99316667 L7.96518687,2.445 C7.96518687,2.72108333 8.19588889,2.945 8.48033838,2.945 C8.76478788,2.945 8.9954899,2.72108333 8.9954899,2.445 L8.9954899,1.99316667 L12.0050909,1.99316667 L12.0050909,2.445 C12.0050909,2.72108333 12.2357929,2.945 12.5202424,2.945 C12.8046919,2.945 13.0353939,2.72108333 13.0353939,2.445 L13.0353939,1.99316667 L15.8957727,1.99316667 L15.8957727,4.03783333 L1.0649899,4.03783333 L1.0649899,1.99316667 L4.05321212,1.99316667 L4.05321212,1.99316667 Z M8.48033838,15.9619167 C6.34743939,15.9619167 4.61215152,14.2776667 4.61215152,12.2075 C4.61215152,10.1373333 6.34743939,8.45308333 8.48033838,8.45308333 C10.6132374,8.45308333 12.3485253,10.13725 12.3485253,12.2075 C12.3485253,14.27775 10.6133232,15.9619167 8.48033838,15.9619167 L8.48033838,15.9619167 Z M13.3766818,12.2908333 C13.377197,12.263 13.3788283,12.2354167 13.3788283,12.2075 C13.3788283,9.58591667 11.1813636,7.45308333 8.48033838,7.45308333 C5.77931313,7.45308333 3.58184848,9.58591667 3.58184848,12.2075 C3.58184848,12.2354167 3.58356566,12.263 3.58399495,12.2908333 L1.06490404,12.2908333 L1.06490404,5.03791667 L15.8956869,5.03791667 L15.8956869,12.2908333 L13.3766818,12.2908333 L13.3766818,12.2908333 Z" id="Shape"></path>
                        <path d="M8.9954899,12.3336667 L8.9954899,9.91483333 C8.9954899,9.63875 8.76478788,9.41483333 8.48033838,9.41483333 C8.19588889,9.41483333 7.96518687,9.63875 7.96518687,9.91483333 L7.96518687,12.5408333 C7.96518687,12.6734167 8.01944949,12.8005833 8.1160404,12.8944167 L9.3000303,14.0436667 C9.40065657,14.14125 9.53244949,14.1900833 9.66432828,14.1900833 C9.79612121,14.1900833 9.928,14.14125 10.0286263,14.0436667 C10.2297929,13.8484167 10.2297929,13.5318333 10.0286263,13.3365833 L8.9954899,12.3336667 L8.9954899,12.3336667 Z" id="Shape"></path>
                    </g>
                </g>
            </g>
        </g>
    </g>
</svg>