<?xml version="1.0" encoding="UTF-8" standalone="no"?>
<svg width="18px" height="18px" viewBox="0 0 18 18" version="1.1" xmlns="http://www.w3.org/2000/svg" xmlns:xlink="http://www.w3.org/1999/xlink">
    <!-- Generator: Sketch 40.1 (33804) - http://www.bohemiancoding.com/sketch -->
    <title>edit</title>
    <desc>Created with Sketch.</desc>
    <defs></defs>
    <g id="Page-1" stroke="none" stroke-width="1" fill="none" fill-rule="evenodd">
        <g id="414_StyleGuide-Copy-20" transform="translate(-1141.000000, -211.000000)" fill="#373737">
            <g id="edit" transform="translate(1141.000000, 211.000000)">
                <g id="Group">
                    <g id="Group-12">
                        <path d="M17.2739496,16.6615385 L0.72605042,16.6615385 C0.378151261,16.6615385 0.105882353,16.9538462 0.105882353,17.2923077 C0.105882353,17.6307692 0.393277311,17.9230769 0.72605042,17.9230769 L17.2890756,17.9230769 C17.6369748,17.9230769 17.9092437,17.6307692 17.9092437,17.2923077 C17.9092437,16.9538462 17.6218487,16.6615385 17.2739496,16.6615385 L17.2739496,16.6615385 Z" id="Shape"></path>
                        <path d="M0.105882353,11.0769231 L0.0907563025,14.0769231 C0.0907563025,14.2461538 0.151260504,14.4153846 0.272268908,14.5384615 C0.393277311,14.6615385 0.544537815,14.7230769 0.71092437,14.7230769 L3.64537815,14.7076923 C3.81176471,14.7076923 3.96302521,14.6461538 4.08403361,14.5230769 L14.2184874,4.21538462 C14.4605042,3.96923077 14.4605042,3.56923077 14.2184874,3.30769231 L11.3142857,0.323076923 C11.0722689,0.0769230769 10.6789916,0.0769230769 10.4218487,0.323076923 L8.39495798,2.4 L0.287394958,10.6307692 C0.181512605,10.7538462 0.105882353,10.9076923 0.105882353,11.0769231 L0.105882353,11.0769231 Z M10.8756303,1.67692308 L12.9176471,3.75384615 L11.7680672,4.92307692 L9.72605042,2.84615385 L10.8756303,1.67692308 L10.8756303,1.67692308 Z M1.36134454,11.3538462 L8.83361345,3.75384615 L10.8756303,5.83076923 L3.40336134,13.4153846 L1.34621849,13.4307692 L1.36134454,11.3538462 L1.36134454,11.3538462 Z" id="Shape"></path>
                    </g>
                </g>
            </g>
        </g>
    </g>
</svg>