<svg xmlns="http://www.w3.org/2000/svg" width="184" height="127.339" viewBox="0 0 184 127.339">
  <g id="mortarboard" transform="translate(-0.001 -78.834)">
    <path id="Path_197" data-name="Path 197" d="M109.005,262.3l1.735,3.584s27.519,22.346,51.09,22.346,51.214-22.346,51.214-22.346l1.609-3.584h0a253.514,253.514,0,0,1-8.174-30.227l-5.037-2.832H121.478l-4.3,2.831a253.48,253.48,0,0,1-8.174,30.228Z" transform="translate(-69.831 -96.354)" fill="#1184ab"/>
    <path id="Path_198" data-name="Path 198" d="M132.378,230.458l1.847-1.217H121.478l-4.3,2.831a253.48,253.48,0,0,1-8.174,30.228h0l1.735,3.584a126.965,126.965,0,0,0,10.805,7.618C125.4,260.64,129.323,245.824,132.378,230.458Z" transform="translate(-69.831 -96.354)" fill="#156f8e"/>
    <path id="Path_199" data-name="Path 199" d="M182.225,108.53,96.6,79.591a14.363,14.363,0,0,0-9.2,0L1.776,108.53a2.611,2.611,0,0,0-.308,4.82l84.24,41.07a14.361,14.361,0,0,0,12.586,0l84.24-41.07a2.611,2.611,0,0,0-.308-4.82Z" transform="translate(0 0)" fill="#1498c4"/>
    <path id="Path_200" data-name="Path 200" d="M27.383,113.349a2.611,2.611,0,0,1,.308-4.82l77.267-26.113L96.6,79.59a14.358,14.358,0,0,0-9.2,0L1.776,108.529a2.611,2.611,0,0,0-.308,4.82l84.24,41.07a14.361,14.361,0,0,0,12.586,0l6.665-3.249Z" transform="translate(0)" fill="#168bb2"/>
    <g id="Group_1049" data-name="Group 1049" transform="translate(93.574 102.342)">
      <path id="Path_201" data-name="Path 201" d="M330.056,223.166a2.776,2.776,0,0,1-2.776-2.776V169.038a2.9,2.9,0,0,0-2.166-2.8L262.447,149.71a2.777,2.777,0,0,1,1.416-5.37l62.661,16.522a8.453,8.453,0,0,1,6.309,8.176v51.351A2.777,2.777,0,0,1,330.056,223.166Z" transform="translate(-260.378 -144.248)" fill="#ecf4ff"/>
    </g>
    <path id="Path_202" data-name="Path 202" d="M448.39,373.3h-9.722l-1.156,17.98a2.553,2.553,0,0,0,2.505,2.753h7.024a2.552,2.552,0,0,0,2.5-2.753Z" transform="translate(-280.277 -188.639)" fill="#ffd064"/>
    <path id="Path_203" data-name="Path 203" d="M443.839,391.275,445,373.3h-6.327l-1.156,17.98a2.552,2.552,0,0,0,2.5,2.752h6.327A2.552,2.552,0,0,1,443.839,391.275Z" transform="translate(-280.277 -188.639)" fill="#ebb044"/>
    <path id="Path_204" data-name="Path 204" d="M445.238,337.336h-4.5a4.088,4.088,0,0,0-4.077,4.077V349.5a1.333,1.333,0,0,0,1.333,1.333h9.988a1.333,1.333,0,0,0,1.333-1.333v-8.092A4.089,4.089,0,0,0,445.238,337.336Z" transform="translate(-279.736 -165.603)" fill="#ffe07d"/>
    <path id="Path_205" data-name="Path 205" d="M443.818,349.5v-8.092a4.089,4.089,0,0,1,2.748-3.848,4.032,4.032,0,0,0-1.329-.228h-4.5a4.089,4.089,0,0,0-4.077,4.077V349.5a1.333,1.333,0,0,0,1.333,1.333h7.158A1.332,1.332,0,0,1,443.818,349.5Z" transform="translate(-279.735 -165.602)" fill="#ffd064"/>
    <path id="Path_206" data-name="Path 206" d="M240.178,130.449a9.2,9.2,0,0,0-9.769,9.179v.047a4.336,4.336,0,0,0,4.367,4.258h9.661a4.342,4.342,0,0,0,4.355-4.755A9.243,9.243,0,0,0,240.178,130.449Z" transform="translate(-147.605 -33.055)" fill="#3f6d8e"/>
    <path id="Path_207" data-name="Path 207" d="M238.74,139.675v-.047a9.194,9.194,0,0,1,5.015-8.19,9.029,9.029,0,0,0-3.575-.989,9.2,9.2,0,0,0-9.769,9.179v.047a4.336,4.336,0,0,0,4.367,4.258h8.33A4.337,4.337,0,0,1,238.74,139.675Z" transform="translate(-147.606 -33.055)" fill="#365e7d"/>
    <path id="Path_208" data-name="Path 208" d="M209.317,321.231c-9.65,7.932-25.343,16.809-42.3,22.272a34.52,34.52,0,0,1-21.058,0c-16.914-5.451-32.6-14.308-42.3-22.272-.928,2.772-1.781,5.183-2.492,7.128a8.231,8.231,0,0,0,2.628,9.3,137.772,137.772,0,0,0,42.16,22.156,34.513,34.513,0,0,0,21.058,0,137.769,137.769,0,0,0,42.16-22.156,8.231,8.231,0,0,0,2.628-9.3C211.1,326.413,210.245,324,209.317,321.231Z" transform="translate(-64.493 -155.285)" fill="#fbcf57"/>
    <path id="Path_209" data-name="Path 209" d="M116.833,330.33a107.414,107.414,0,0,1-13.166-9.1c-.928,2.772-1.781,5.183-2.492,7.128a8.23,8.23,0,0,0,2.628,9.3c2.923,2.3,5.877,4.4,8.815,6.317C113.988,339.729,115.409,335.158,116.833,330.33Z" transform="translate(-64.492 -155.285)" fill="#ffd064"/>
  </g>
</svg>
