<svg xmlns="http://www.w3.org/2000/svg" width="60.36" height="74.015" viewBox="0 0 60.36 74.015">
  <g id="Group_516" data-name="Group 516" transform="translate(0 -0.5)">
    <path id="Stroke_506" data-name="Stroke 506" d="M23.418-.5H35.942a2,2,0,0,1,1.439.611c.055.057,5.6,5.817,11.073,12.559C56.129,22.128,59.86,28.716,59.86,32.811c0,6.485-3.205,12.55-9.025,17.077A34.49,34.49,0,0,1,29.68,56.729,34.49,34.49,0,0,1,8.525,49.888C2.705,45.361-.5,39.3-.5,32.811c0-4.095,3.731-10.683,11.406-20.141C16.376,5.929,21.923.169,21.978.111A2,2,0,0,1,23.418-.5Zm11.671,4H24.271C16,12.174,3.5,27.269,3.5,32.811c0,10.982,11.744,19.917,26.179,19.917s26.179-8.935,26.179-19.917C55.859,27.269,43.365,12.174,35.089,3.5Z" transform="translate(0.5 17.786)" fill="#319e68"/>
    <path id="Stroke_508" data-name="Stroke 508" d="M26.549,3.5H1.5a2,2,0,0,1,0-4H26.549a2,2,0,0,1,0,4Z" transform="translate(16.155 17.786)" fill="#319e68"/>
    <path id="Stroke_510" data-name="Stroke 510" d="M27.106,22.287H14.582a2,2,0,0,1-1.248-.437c-.132-.106-3.273-2.621-6.521-5.839C2.143,11.384-.243,7.813-.48,5.094A4.361,4.361,0,0,1,.558,1.742,3.872,3.872,0,0,1,3.6.5c3.141,0,7.867,2.783,10.476,4.494.366-.5.8-1.064,1.265-1.632,2.2-2.67,3.9-3.86,5.506-3.86S24.152.69,26.35,3.36c.468.568.9,1.133,1.265,1.632C30.224,3.281,34.95.5,38.091.5A3.872,3.872,0,0,1,41.13,1.742a4.362,4.362,0,0,1,1.038,3.352c-.237,2.719-2.622,6.29-7.292,10.917-3.248,3.218-6.389,5.734-6.521,5.839A2,2,0,0,1,27.106,22.287Zm-11.817-4H26.4C31.316,14.268,37.926,7.7,38.182,4.747a.94.94,0,0,0,0-.246l-.087,0c-2.065,0-6.985,2.859-9.819,4.89a2,2,0,0,1-2.845-.54c-1.566-2.418-3.667-4.837-4.582-5.3-.918.467-3.019,2.885-4.582,5.3a2,2,0,0,1-2.846.54C10.582,7.358,5.662,4.5,3.6,4.5l-.087,0a.943.943,0,0,0,0,.246C3.763,7.7,10.373,14.271,15.289,18.286Z" transform="translate(9.336 1)" fill="#319e68"/>
    <path id="Path_231" data-name="Path 231" d="M6.2,6.019a4.977,4.977,0,0,0,1.636-.24,3.074,3.074,0,0,0,1.13-.662,2.574,2.574,0,0,0,.649-.993,3.622,3.622,0,0,0,.208-1.247A2.553,2.553,0,0,0,8.933.8,4.168,4.168,0,0,0,6.226.059H4.2v5.96Zm9.129,9.921H11.809a1.529,1.529,0,0,1-1.428-.753L6.8,9.409a1.514,1.514,0,0,0-.487-.493,1.584,1.584,0,0,0-.786-.156H4.2V15.94H.3V-2.9H6.226A12.17,12.17,0,0,1,9.6-2.493a6.49,6.49,0,0,1,2.3,1.136A4.351,4.351,0,0,1,13.212.377a5.747,5.747,0,0,1,.416,2.214,5.818,5.818,0,0,1-.266,1.773,5.225,5.225,0,0,1-.773,1.526A5.57,5.57,0,0,1,11.342,7.11a6.447,6.447,0,0,1-1.688.857,3.763,3.763,0,0,1,.7.5,3.426,3.426,0,0,1,.584.695Zm4.7-3.532a2.859,2.859,0,0,0,1.1.818,3.41,3.41,0,0,0,1.266.234,2.777,2.777,0,0,0,1.182-.247,2.354,2.354,0,0,0,.915-.773,3.894,3.894,0,0,0,.591-1.344,7.993,7.993,0,0,0,.208-1.948,8.778,8.778,0,0,0-.175-1.9,3.786,3.786,0,0,0-.493-1.26,1.9,1.9,0,0,0-.773-.695,2.346,2.346,0,0,0-1.013-.214,3.145,3.145,0,0,0-1.591.37,4.381,4.381,0,0,0-1.214,1.084Zm-.208-8.1a7.965,7.965,0,0,1,.857-.812,5.54,5.54,0,0,1,.974-.636,5.209,5.209,0,0,1,1.117-.416,5.346,5.346,0,0,1,1.3-.149,4.29,4.29,0,0,1,1.98.461A4.43,4.43,0,0,1,27.6,4.091,6.643,6.643,0,0,1,28.613,6.24a10.606,10.606,0,0,1,.364,2.909,9.1,9.1,0,0,1-.409,2.785,6.781,6.781,0,0,1-1.162,2.214,5.373,5.373,0,0,1-1.812,1.461,5.223,5.223,0,0,1-2.357.526,4.7,4.7,0,0,1-1.85-.325,4.643,4.643,0,0,1-1.357-.883v5.337H16.445V2.552h2.208a.869.869,0,0,1,.9.623Z" transform="translate(15.943 41.905)" fill="#319e68"/>
  </g>
</svg>
