<?xml version="1.0" encoding="UTF-8"?>
<svg width="31px" height="32px" viewBox="0 0 31 32" version="1.1" xmlns="http://www.w3.org/2000/svg" xmlns:xlink="http://www.w3.org/1999/xlink">
    <!-- Generator: Sketch 47.1 (45422) - http://www.bohemiancoding.com/sketch -->
    <title>Loan</title>
    <desc>Created with Sketch.</desc>
    <defs></defs>
    <g id="_New" stroke="none" stroke-width="1" fill="none" fill-rule="evenodd">
        <g id="0501_MyAccount-One" transform="translate(-809.000000, -172.000000)" stroke-width="0.200000018" fill-rule="nonzero">
            <g id="Loan" transform="translate(809.613527, 173.000000)">
                <path d="M20.8696301,12.5506961 L20.5716676,12.5506961 L20.3783543,12.5506961 L20.0803918,12.5506961 C19.8308989,12.5506961 19.6279739,12.3535629 19.6279739,12.1111909 L19.6279739,11.6652445 C19.6280253,11.4228725 19.8309503,11.2257392 20.0803918,11.2257392 L20.954799,11.2257392 C21.1572613,11.2257392 21.3220479,11.3857227 21.3220479,11.5824565 C21.3220479,11.8581833 21.5522146,12.0817807 21.8360423,12.0817807 C22.1198699,12.0817807 22.3500366,11.8581833 22.3500366,11.5824565 C22.3500366,10.8463028 21.7425981,10.2457155 20.989031,10.2279396 L20.989031,9.79931967 C20.989031,9.52359282 20.7588643,9.29999542 20.4750366,9.29999542 C20.1912089,9.29999542 19.9610423,9.52359282 19.9610423,9.79931967 L19.9610423,10.2321839 C19.2004334,10.2915036 18.6000366,10.9113647 18.6000366,11.6652445 L18.6000366,12.1111909 C18.6000366,12.9041678 19.2641687,13.5493446 20.0804432,13.5493446 L20.3784057,13.5493446 L20.571719,13.5493446 L20.8696815,13.5493446 C21.1191743,13.5493446 21.3220993,13.7464778 21.3220993,13.9887999 L21.3220993,14.4347963 C21.3220993,14.6771184 21.1191743,14.8742516 20.8696815,14.8742516 L19.9952743,14.8742516 C19.7928119,14.8742516 19.6280253,14.7142681 19.6280253,14.5175344 C19.6280253,14.2418075 19.3978587,14.0182101 19.114031,14.0182101 C18.8302033,14.0182101 18.6000366,14.2418075 18.6000366,14.5175344 C18.6000366,15.253738 19.2075265,15.8542753 19.9610423,15.8720512 L19.9610423,16.3006712 C19.9610423,16.576398 20.1912089,16.7999954 20.4750366,16.7999954 C20.7588643,16.7999954 20.989031,16.576398 20.989031,16.3006712 L20.989031,15.867807 C21.7496398,15.8084873 22.3500366,15.1886761 22.3500366,14.4347963 L22.3500366,13.9887999 C22.3500366,13.1958231 21.6859045,12.5506961 20.8696301,12.5506961 Z" id="Shape" stroke="#FFC83D" fill="#FFC83D"></path>
                <path d="M29.8015978,19.8638026 C29.5518695,19.3177671 29.096836,18.8982356 28.5203672,18.6826104 C27.9438984,18.4669853 27.3148744,18.4809306 26.7493293,18.7221612 C26.7473064,18.7229816 25.4701015,19.2916147 22.9177144,20.4280607 C22.6133068,20.5635881 22.4804016,20.9116938 22.6207107,21.2055416 C22.7610805,21.4994481 23.1216845,21.6277099 23.4259707,21.4922996 L27.2436882,19.7924353 C27.5116227,19.6795251 27.8091119,19.6734899 28.0819621,19.7753845 C28.3561473,19.8779822 28.5724976,20.0774355 28.6912627,20.3371817 C28.8100885,20.596928 28.8169461,20.8856782 28.7107433,21.1504049 C28.6044798,21.4151902 28.3979002,21.624077 28.1288734,21.7387451 L20.3062786,25.0735518 C19.0727483,25.599431 17.6726313,25.568845 16.464711,24.9894697 L13.6011801,23.6159728 C12.0695536,22.8812653 10.2938428,22.8423004 8.72938458,23.5093907 L6.57055477,18.8836457 L9.52165746,17.6256372 C10.9319699,17.0244063 12.505592,16.9760079 13.9525596,17.4889965 L19.7108754,19.5306969 C20.2252004,19.7130407 20.499325,20.268627 20.3219359,20.7690765 C20.1412091,21.2790768 19.5638907,21.5534715 19.0350615,21.3807956 L14.5821298,19.9266151 C14.2645531,19.8229041 13.9202133,19.9873768 13.8127967,20.2939395 C13.7053802,20.6005022 13.8757295,20.9330219 14.1932455,21.0367329 L18.6461771,22.4909135 C18.8816439,22.5678471 19.1214195,22.6043511 19.3574932,22.6043511 C20.2849774,22.6043511 21.1542018,22.0406789 21.4703827,21.1484127 C21.8595704,20.0500136 21.2579164,18.8308527 20.1292537,18.4307158 L14.370938,16.3890153 C13.9836315,16.2516715 13.5887999,16.1479019 13.190327,16.0772378 L13.190327,12.8383491 C13.190327,9.6447535 15.8813845,7.04652929 19.1890859,7.04652929 L21.4056293,7.04652929 C24.7133913,7.04652929 27.4044489,9.6447535 27.4044489,12.8383491 L27.4044489,15.8653618 C27.4044489,16.1889167 27.6762067,16.4512996 28.011322,16.4512996 C28.3464374,16.4512996 28.6181952,16.1889167 28.6181952,15.8653618 L28.6181952,12.8383491 C28.6181952,9.45625729 26.1078644,6.62998607 22.7917276,6.00420445 L22.7917276,4.23918387 L24.3251139,1.7066433 C24.4118361,1.56349868 24.4316201,1.39152592 24.3795504,1.23349848 C24.3274807,1.07547105 24.2085943,0.946095969 24.0522031,0.877482647 L22.1715032,0.0524821551 C22.0274922,-0.010681945 21.8636971,-0.0170686676 21.7149525,0.0346110507 L20.3194478,0.519533215 L19.0816693,0.0418180863 C18.9393576,-0.0130256964 18.780903,-0.0139046032 18.6379237,0.0392399597 L16.6699555,0.772306803 C16.5062211,0.833302933 16.3778674,0.959806915 16.3179084,1.11912342 C16.2580707,1.27843992 16.2725142,1.4549244 16.3576585,1.60316667 L17.8676196,4.23209402 L17.8676196,5.99213413 C14.5195612,6.59318918 11.9765807,9.43416743 11.9765807,12.838232 L11.9765807,15.9647963 C10.9740263,15.9556557 9.97256421,16.1522378 9.03142534,16.5534295 L6.05835384,17.8208131 C5.88806524,17.5747778 5.64519461,17.3845823 5.35347069,17.2754807 C4.97890859,17.1353244 4.57017954,17.144465 4.20417435,17.3005002 L0.36327426,18.9254817 C0.1425545,19.0188802 0,19.2294662 0,19.4621422 L0,29.4140622 C0,29.6175584 0.109358539,29.8064647 0.288871613,29.913164 C0.386153377,29.9708789 0.496361539,30 0.606873137,30 C0.700452975,30 0.794275562,29.9791406 0.880512235,29.9370703 L8.33734454,26.3000955 C8.69697756,26.1420094 8.97316552,25.8595874 9.11614483,25.50322 C9.23296791,25.2120675 9.24959624,24.8995868 9.16706149,24.6036882 C10.453147,24.055309 11.8534461,24.0859535 13.0611237,24.6653874 L15.9246546,26.038943 C17.4563417,26.7734746 19.2319918,26.8123223 20.79645,26.1454665 L28.6190448,22.8106598 C29.1845899,22.5696049 29.619111,22.1302687 29.8424403,21.5736864 C30.0657697,21.017104 30.0512654,20.409838 29.8015978,19.8638026 Z M21.4056293,5.87453641 L19.1890859,5.87453641 L19.0813659,5.87453641 L19.0813659,4.66644975 L21.5779813,4.66644975 L21.5779813,5.87453641 L21.4056293,5.87453641 Z M17.757108,1.62326434 L18.8524533,1.215393 L20.0828886,1.69029563 C20.2207702,1.74349879 20.3740663,1.74613551 20.5137079,1.69750267 L21.8939801,1.21779535 L22.9378626,1.67570578 L21.8366306,3.49445686 L18.8318803,3.49445686 L17.757108,1.62326434 Z M7.8309089,25.2350362 C7.82132031,25.2391378 7.8117924,25.2435323 7.80238587,25.2481026 L1.21374627,28.4616202 L1.21374627,26.0871656 L2.91984873,25.2782784 C3.22073643,25.1356026 3.34484198,24.7845086 3.19712906,24.4940592 C3.04935545,24.2035512 2.68583844,24.0836098 2.38489006,24.2263442 L1.21368559,24.7815789 L1.21368559,19.8451111 L4.6928286,18.3731181 C4.78841112,18.332454 4.87306992,18.3524931 4.91500485,18.3681962 C4.95681841,18.3838993 5.0334058,18.4239189 5.07564417,18.5163213 L5.2147395,18.820423 C5.21486087,18.8207355 6.13631681,20.8356977 7.97910732,24.8653094 C8.04386069,25.0067548 7.97740808,25.1725752 7.8309089,25.2350362 Z" id="Shape" stroke="#9B9B9B" fill="#9B9B9B"></path>
            </g>
        </g>
    </g>
</svg>