<?xml version="1.0" encoding="UTF-8" standalone="no"?>
<svg width="27px" height="27px" viewBox="0 0 27 27" version="1.1" xmlns="http://www.w3.org/2000/svg" xmlns:xlink="http://www.w3.org/1999/xlink">
    <!-- Generator: Sketch 39.1 (31720) - http://www.bohemiancoding.com/sketch -->
    <title>Group 9</title>
    <desc>Created with Sketch.</desc>
    <defs></defs>
    <g id="Style-Guide" stroke="none" stroke-width="1" fill="none" fill-rule="evenodd">
        <g id="406_StyleGuide-Copy-16" transform="translate(-87.000000, -230.000000)">
            <g id="Group-6" transform="translate(70.000000, 161.000000)">
                <g id="Account-Copy-4" transform="translate(0.000000, 57.000000)">
                    <g id="Group-9" transform="translate(18.000000, 13.000000)">
                        <path d="M12.5,25 C19.4035594,25 25,19.4035594 25,12.5 C25,5.59644063 19.4035594,0 12.5,0 C5.59644063,0 0,5.59644063 0,12.5 C0,19.4035594 5.59644063,25 12.5,25 Z" id="Oval-1153" stroke="#FFC83D" stroke-width="2" fill="#FFC83D"></path>
                        <g id="list" transform="translate(7.031250, 8.593750)" stroke="#373737" fill="#000000">
                            <path d="M10.2743527,7.67778716 L3.81283482,7.67778716 C3.54685268,7.67778716 3.33109375,7.45080236 3.33109375,7.17124155 C3.33109375,6.89083615 3.54685268,6.6640625 3.81283482,6.6640625 L10.2743527,6.6640625 C10.5403348,6.6640625 10.7562946,6.89083615 10.7562946,7.17124155 C10.7562946,7.45080236 10.5403348,7.67778716 10.2743527,7.67778716 L10.2743527,7.67778716 Z" id="Fill-1" stroke-width="0.300000012"></path>
                            <path d="M10.2743527,4.49725507 L3.81283482,4.49725507 C3.54685268,4.49725507 3.33109375,4.27048142 3.33109375,3.99007601 C3.33109375,3.7105152 3.54685268,3.48353041 3.81283482,3.48353041 L10.2743527,3.48353041 C10.5403348,3.48353041 10.7562946,3.7105152 10.7562946,3.99007601 C10.7562946,4.27048142 10.5403348,4.49725507 10.2743527,4.49725507 L10.2743527,4.49725507 Z" id="Fill-2" stroke-width="0.300000012"></path>
                            <path d="M10.2743527,1.31608953 L3.81283482,1.31608953 C3.54685268,1.31608953 3.33109375,1.08910473 3.33109375,0.809543919 C3.33109375,0.529138514 3.54685268,0.302364865 3.81283482,0.302364865 L10.2743527,0.302364865 C10.5403348,0.302364865 10.7562946,0.529138514 10.7562946,0.809543919 C10.7562946,1.08910473 10.5403348,1.31608953 10.2743527,1.31608953 L10.2743527,1.31608953 Z" id="Fill-3" stroke-width="0.300000012"></path>
                            <path d="M1.29475446,0.84839527 C1.29475446,1.22445101 1.00526786,1.52892736 0.647477679,1.52892736 C0.289486607,1.52892736 0,1.22445101 0,0.84839527 C0,0.472339527 0.289486607,0.167863176 0.647477679,0.167863176 C1.00526786,0.167863176 1.29475446,0.472339527 1.29475446,0.84839527 L1.29475446,0.84839527 Z" id="Fill-4" stroke-width="0.3"></path>
                            <path d="M1.29475446,3.99007601 C1.29475446,4.36613176 1.00526786,4.67039696 0.647477679,4.67039696 C0.289486607,4.67039696 0,4.36613176 0,3.99007601 C0,3.61465372 0.289486607,3.30954392 0.647477679,3.30954392 C1.00526786,3.30954392 1.29475446,3.61465372 1.29475446,3.99007601 L1.29475446,3.99007601 Z" id="Fill-5" stroke-width="0.3"></path>
                            <path d="M1.29475446,7.13175676 C1.29475446,7.5078125 1.00526786,7.8120777 0.647477679,7.8120777 C0.289486607,7.8120777 0,7.5078125 0,7.13175676 C0,6.75633446 0.289486607,6.45122466 0.647477679,6.45122466 C1.00526786,6.45122466 1.29475446,6.75633446 1.29475446,7.13175676 L1.29475446,7.13175676 Z" id="Fill-6" stroke-width="0.3"></path>
                        </g>
                    </g>
                </g>
            </g>
        </g>
    </g>
</svg>