<?xml version="1.0" encoding="UTF-8"?>
<svg width="16px" height="18px" viewBox="0 0 16 18" version="1.1" xmlns="http://www.w3.org/2000/svg" xmlns:xlink="http://www.w3.org/1999/xlink">
    <!-- Generator: Sketch 41 (35326) - http://www.bohemiancoding.com/sketch -->
    <title>timer</title>
    <desc>Created with Sketch.</desc>
    <defs></defs>
    <g id="02-Pay" stroke="none" stroke-width="1" fill="none" fill-rule="evenodd">
        <g id="0809_Pay-Astro-Open-08" transform="translate(-741.000000, -649.000000)" fill="#000000">
            <g id="Group-8" transform="translate(0.000000, 613.000000)">
                <g id="timer" transform="translate(741.000000, 36.000000)">
                    <path d="M0,9.9176129 C0,14.3767742 3.56552381,17.9998065 7.95466667,17.9998065 C12.3430476,17.9998065 15.9085714,14.3767742 15.9085714,9.9176129 C15.9085714,7.70322581 15.0245714,5.67464516 13.5921905,4.21935484 L14.2173333,3.58412903 L14.5066667,3.87909677 C14.6287619,4.00219355 14.7813333,4.06432258 14.9485714,4.06432258 C15.116,4.06432258 15.2685714,4.00219355 15.3906667,3.87909677 C15.6339048,3.63096774 15.6339048,3.228 15.3906667,2.98083871 L13.9426667,1.50967742 C13.6994286,1.26154839 13.3028571,1.26154839 13.0588571,1.50967742 C12.8154286,1.7576129 12.8154286,2.15980645 13.0588571,2.40774194 L13.3481905,2.70193548 L12.6628571,3.39890323 C11.504381,2.53180645 10.1182857,1.98967742 8.59447619,1.8656129 L8.59447619,1.32367742 L9.98057143,1.32367742 C10.3310476,1.32367742 10.6057143,1.04535484 10.6057143,0.689225806 C10.6057143,0.333096774 10.3310476,0.0541935484 9.98057143,0.0541935484 L5.86685714,0.0541935484 C5.51638095,0.0541935484 5.24190476,0.333096774 5.24190476,0.689225806 C5.24190476,1.04535484 5.51638095,1.32367742 5.86685714,1.32367742 L7.34457143,1.32367742 L7.34457143,1.8656129 C3.23066667,2.19077419 0,5.67464516 0,9.9176129 L0,9.9176129 Z M7.95466667,3.10490323 C11.6569524,3.10490323 14.6740952,6.17070968 14.6740952,9.93270968 C14.6740952,13.6954839 11.6569524,16.7612903 7.95466667,16.7612903 C4.25142857,16.7612903 1.23428571,13.6954839 1.23428571,9.93270968 C1.23428571,6.15483871 4.25142857,3.10490323 7.95466667,3.10490323 L7.95466667,3.10490323 Z" id="Fill-1"></path>
                    <path d="M7.95466667,10.443871 L10.6213333,10.443871 C10.9718095,10.443871 11.2455238,10.1647742 11.2455238,9.80864516 C11.2455238,9.45270968 10.9718095,9.1743871 10.6213333,9.1743871 L8.57885714,9.1743871 L8.57885714,5.90670968 C8.57885714,5.55058065 8.30514286,5.27245161 7.95466667,5.27245161 C7.60419048,5.27245161 7.32952381,5.55058065 7.32952381,5.90670968 L7.32952381,9.82451613 C7.32952381,10.1647742 7.60419048,10.443871 7.95466667,10.443871 L7.95466667,10.443871 Z" id="Fill-2"></path>
                </g>
            </g>
        </g>
    </g>
</svg>