<?xml version="1.0" encoding="UTF-8" standalone="no"?>
<svg width="19px" height="19px" viewBox="0 0 19 19" version="1.1" xmlns="http://www.w3.org/2000/svg" xmlns:xlink="http://www.w3.org/1999/xlink">
    <!-- Generator: Sketch 39.1 (31720) - http://www.bohemiancoding.com/sketch -->
    <title>Group 17</title>
    <desc>Created with Sketch.</desc>
    <defs></defs>
    <g id="Page-1" stroke="none" stroke-width="1" fill="none" fill-rule="evenodd">
        <g id="414_StyleGuide-Copy-20" transform="translate(-137.000000, -1143.000000)">
            <g id="Group-24" transform="translate(-1.000000, 1109.000000)">
                <g id="Group-17" transform="translate(138.000000, 34.000000)">
                    <path d="M2.45914901,7.98832529 C2.45914901,4.93924297 4.94165993,2.45794624 7.99223427,2.45794624 C11.0428086,2.45794624 13.5253195,4.93924297 13.5253195,7.98832529 C13.5253195,11.0374076 11.0428086,13.5187043 7.99223427,13.5187043 C4.94165993,13.5187043 2.45914901,11.0374076 2.45914901,7.98832529 M18.459602,15.4137809 L14.9503964,11.9050626 C15.6057596,10.7473699 15.9844685,9.41147616 15.9844685,7.98832529 C15.9844685,3.58368562 12.3990293,3.90798505e-14 7.99223427,3.90798505e-14 C3.58543925,3.90798505e-14 5.08038056e-13,3.58368562 5.08038056e-13,7.98832529 C5.08038056e-13,12.392965 3.58543925,15.9766506 7.99223427,15.9766506 C9.6398641,15.9766506 11.1731435,15.4740006 12.4469827,14.6174063 L15.8516745,18.0204329 C16.2119398,18.379293 16.6840964,18.5599521 17.156253,18.5599521 C17.6271801,18.5599521 18.0993367,18.379293 18.459602,18.0204329 C19.1801327,17.3002546 19.1801327,16.1339591 18.459602,15.4137809" id="Fill-1-Copy-4" fill="#FFFFFF"></path>
                    <path d="M5.58823529,7.82352941 L10.0588235,7.82352941" id="Line" stroke="#FFFFFF" stroke-width="2" stroke-linecap="square"></path>
                </g>
            </g>
        </g>
    </g>
</svg>